<svg xmlns="http://www.w3.org/2000/svg" viewBox="0 0 320 230" height="24" fill="#522A86" shape-rendering="geometricPrecision">
  <g fill="#522A86" fill-rule="evenodd">
    <!-- J -->
    <g transform="translate(0, 0) scale(0.1)">
      <path d="M 73,209 Z M 57,209 Z M 94,204 Z M 37,204 L 36,204 Z M 34,203 Z M 95,202 Z M 23,202 Z M 98,199 Z M 121,175 Z M 4,172 L 4,171 Z M 122,169 Z M 69,165 L 68,165 Z M 58,165 Z M 56,165 L 55,165 Z M 5,157 Z M 7,150 Z M 4,150 Z M 81,150 L 81,151 L 81,150 L 82,149 Z M 37,149 Z M 35,149 L 34,149 Z M 84,140 L 84,138 Z M 128,132 L 128,129 Z M 84,136 L 84,127 Z M 84,125 L 84,117 Z M 128,115 Z M 84,115 Z M 84,113 Z M 128,100 Z M 128,94 Z M 84,106 L 84,93 Z M 128,90 Z M 84,91 L 84,85 Z M 128,84 Z M 128,81 Z M 128,79 Z M 128,77 L 128,75 Z M 128,73 Z M 128,71 Z M 128,68 L 128,67 Z M 84,67 L 84,65 Z M 128,63 Z M 128,57 Z M 84,60 L 84,54 Z M 128,50 Z M 128,48 L 128,45 Z M 84,51 L 84,45 Z M 84,43 L 84,39 Z M 128,34 Z M 84,20 L 84,18 Z M 99,2 L 98,3 L 95,3 L 94,4 L 93,4 L 89,8 L 89,9 L 88,10 L 88,11 L 87,12 L 87,15 L 86,16 L 86,25 L 85,26 L 84,25 L 84,23 L 84,35 L 84,27 L 85,26 L 86,27 L 86,73 L 85,74 L 84,73 L 84,69 L 84,76 L 84,75 L 85,74 L 86,75 L 86,80 L 85,81 L 84,80 L 84,79 L 84,80 L 86,82 L 86,143 L 85,144 L 85,148 L 84,149 L 84,151 L 83,152 L 83,153 L 82,154 L 82,155 L 81,156 L 81,157 L 79,159 L 79,160 L 75,164 L 74,164 L 72,166 L 71,166 L 70,167 L 67,167 L 66,168 L 57,168 L 56,167 L 54,167 L 53,166 L 52,166 L 51,165 L 50,165 L 49,164 L 48,164 L 47,163 L 46,163 L 34,151 L 33,151 L 31,149 L 30,149 L 29,148 L 27,148 L 26,147 L 21,147 L 20,148 L 17,148 L 15,150 L 14,150 L 13,149 L 11,149 L 13,149 L 14,150 L 12,152 L 11,152 L 9,150 L 11,152 L 9,154 L 9,155 L 7,157 L 7,159 L 6,160 L 6,163 L 5,164 L 5,168 L 6,169 L 6,172 L 7,173 L 7,175 L 6,176 L 7,175 L 8,176 L 8,177 L 9,178 L 9,179 L 10,180 L 10,181 L 14,185 L 14,186 L 13,187 L 14,186 L 20,192 L 21,192 L 25,196 L 26,196 L 28,198 L 27,199 L 28,200 L 27,199 L 28,198 L 29,198 L 30,199 L 31,199 L 32,200 L 31,201 L 30,201 L 29,202 L 30,201 L 31,202 L 32,202 L 31,201 L 32,200 L 33,200 L 34,201 L 35,201 L 36,202 L 38,202 L 39,203 L 40,203 L 41,204 L 43,204 L 44,205 L 47,205 L 48,206 L 52,206 L 53,207 L 74,207 L 75,206 L 78,206 L 79,205 L 82,205 L 83,204 L 85,204 L 86,203 L 87,203 L 88,204 L 92,204 L 88,204 L 87,203 L 88,202 L 89,202 L 90,201 L 91,201 L 92,200 L 93,200 L 94,199 L 95,199 L 98,196 L 99,196 L 102,193 L 103,193 L 111,185 L 111,184 L 114,181 L 114,180 L 115,179 L 115,178 L 117,176 L 117,175 L 118,174 L 118,173 L 119,172 L 119,171 L 120,170 L 121,171 L 121,172 L 121,171 L 120,170 L 120,168 L 121,167 L 121,166 L 122,165 L 123,166 L 123,167 L 123,166 L 122,165 L 122,162 L 123,161 L 123,159 L 124,158 L 124,154 L 125,153 L 125,146 L 126,145 L 126,17 L 125,16 L 125,13 L 124,12 L 124,11 L 123,10 L 123,9 L 118,4 L 117,4 L 116,3 L 117,2 L 116,3 L 114,3 L 113,2 Z M 114,0 Z M 106,0 Z"/>
    </g>

    <!-- o -->
    <g transform="translate(54, 0) scale(0.1)">
      <path d="M 117,156 L 116,156 Z M 114,156 L 112,156 Z M 52,156 L 51,156 Z M 41,156 Z M 40,154 Z M 16,154 Z M 37,152 Z M 124,151 Z M 38,150 L 37,149 Z M 33,147 Z M 13,131 L 13,130 Z M 154,127 Z M 154,124 L 153,124 L 154,124 L 155,123 Z M 81,123 Z M 94,121 Z M 156,120 L 155,119 Z M 97,120 L 98,119 Z M 155,117 Z M 9,116 Z M 6,109 Z M 5,106 L 5,105 Z M 51,102 L 50,103 L 51,103 Z M 49,101 Z M 161,100 L 161,99 Z M 162,95 L 162,94 Z M 163,85 Z M 163,83 L 164,82 Z M 2,82 Z M 163,77 Z M 118,77 L 119,78 L 117,80 L 118,79 L 119,80 L 119,81 L 118,82 L 119,83 L 119,77 Z M 2,73 Z M 118,71 Z M 162,70 Z M 52,62 Z M 51,60 Z M 52,58 Z M 6,55 Z M 7,53 Z M 108,52 L 107,52 Z M 8,50 Z M 6,50 Z M 97,44 Z M 83,41 L 82,41 Z M 13,40 Z M 14,31 Z M 136,21 Z M 121,11 Z M 46,10 Z M 59,5 Z M 45,5 Z M 73,4 L 72,5 L 67,5 L 66,6 L 62,6 L 61,5 L 62,6 L 61,7 L 58,7 L 57,8 L 55,8 L 54,9 L 52,9 L 51,10 L 50,10 L 49,11 L 48,11 L 47,12 L 46,12 L 45,13 L 44,13 L 43,14 L 42,14 L 41,15 L 40,15 L 38,17 L 37,17 L 35,19 L 34,19 L 29,24 L 28,24 L 27,23 L 28,22 L 28,21 L 28,22 L 27,23 L 28,24 L 23,29 L 23,30 L 19,34 L 18,33 L 19,34 L 19,35 L 17,37 L 17,38 L 15,40 L 15,41 L 14,42 L 14,43 L 12,45 L 12,47 L 11,48 L 10,47 L 10,46 L 10,47 L 11,48 L 11,49 L 10,50 L 10,51 L 9,52 L 9,54 L 8,55 L 8,57 L 7,58 L 7,61 L 6,62 L 6,65 L 5,66 L 5,70 L 4,71 L 4,92 L 5,93 L 5,98 L 6,99 L 6,103 L 7,104 L 7,106 L 8,107 L 8,109 L 9,110 L 9,112 L 8,113 L 7,112 L 8,113 L 9,112 L 10,113 L 10,114 L 11,115 L 11,117 L 12,118 L 12,119 L 13,120 L 13,121 L 15,123 L 15,124 L 14,125 L 15,124 L 16,125 L 16,126 L 18,128 L 18,129 L 19,130 L 18,131 L 19,130 L 21,132 L 21,133 L 22,133 L 23,134 L 23,135 L 22,136 L 23,135 L 26,138 L 25,139 L 26,138 L 27,138 L 31,142 L 30,143 L 31,142 L 32,143 L 33,143 L 36,146 L 37,146 L 39,148 L 40,148 L 42,150 L 41,151 L 40,151 L 41,151 L 42,150 L 43,150 L 44,151 L 42,153 L 43,152 L 44,153 L 45,153 L 46,154 L 44,156 L 43,156 L 44,156 L 45,155 L 47,155 L 48,154 L 49,155 L 48,154 L 49,153 L 50,153 L 51,154 L 53,154 L 54,155 L 56,155 L 57,156 L 59,156 L 60,157 L 63,157 L 64,158 L 68,158 L 69,159 L 79,159 L 80,160 L 85,160 L 86,159 L 95,159 L 96,158 L 100,158 L 101,157 L 104,157 L 105,156 L 107,156 L 108,155 L 110,155 L 111,154 L 112,154 L 113,153 L 115,153 L 116,152 L 117,152 L 118,151 L 119,151 L 120,150 L 121,150 L 122,149 L 123,149 L 125,147 L 126,147 L 128,145 L 129,145 L 131,143 L 132,143 L 136,139 L 137,139 L 139,137 L 139,136 L 145,130 L 145,129 L 147,127 L 147,126 L 149,124 L 149,123 L 151,121 L 152,122 L 151,121 L 151,120 L 152,119 L 153,120 L 152,119 L 152,118 L 153,117 L 153,116 L 154,115 L 154,114 L 155,113 L 155,111 L 156,110 L 156,108 L 157,107 L 157,105 L 158,104 L 158,101 L 159,100 L 159,97 L 160,96 L 160,89 L 161,88 L 161,74 L 162,73 L 161,74 L 160,73 L 160,68 L 159,67 L 159,63 L 158,62 L 158,59 L 157,58 L 157,56 L 156,55 L 156,53 L 155,52 L 155,50 L 154,49 L 154,48 L 153,47 L 153,46 L 152,45 L 152,44 L 151,43 L 151,42 L 149,40 L 149,39 L 148,38 L 148,37 L 145,34 L 145,33 L 141,29 L 141,28 L 136,23 L 135,23 L 131,19 L 130,19 L 129,18 L 130,17 L 129,18 L 128,17 L 127,17 L 125,15 L 124,15 L 123,14 L 122,14 L 121,13 L 120,13 L 119,12 L 118,12 L 117,11 L 116,11 L 115,10 L 114,10 L 113,9 L 111,9 L 110,8 L 108,8 L 107,7 L 104,7 L 103,6 L 104,5 L 108,5 L 103,5 L 102,6 L 98,6 L 97,5 L 92,5 L 91,4 Z M 43,152 L 44,151 L 46,151 L 47,152 L 48,152 L 49,153 L 48,154 L 46,154 L 45,153 L 44,153 Z M 74,40 L 75,39 L 89,39 L 90,40 L 93,40 L 94,41 L 96,41 L 97,42 L 99,42 L 100,43 L 101,43 L 103,45 L 104,45 L 105,46 L 104,47 L 105,46 L 107,48 L 106,49 L 107,48 L 111,52 L 109,54 L 110,54 L 110,53 L 111,52 L 113,54 L 113,55 L 112,56 L 112,58 L 112,56 L 113,55 L 115,57 L 115,58 L 116,59 L 116,60 L 117,61 L 117,63 L 118,64 L 118,65 L 119,66 L 119,68 L 120,69 L 120,74 L 121,75 L 121,90 L 120,91 L 119,90 L 120,91 L 120,95 L 119,96 L 119,98 L 118,99 L 118,100 L 117,101 L 117,103 L 115,105 L 115,106 L 114,107 L 113,106 L 114,107 L 114,108 L 112,110 L 111,109 L 110,110 L 109,109 L 110,110 L 111,109 L 112,110 L 112,111 L 107,116 L 106,116 L 104,118 L 103,117 L 104,118 L 103,119 L 102,119 L 101,120 L 100,120 L 98,122 L 96,122 L 95,123 L 93,123 L 92,124 L 89,124 L 88,125 L 78,125 L 77,124 L 72,124 L 71,123 L 69,123 L 68,122 L 67,122 L 66,121 L 65,121 L 64,120 L 63,120 L 62,119 L 61,119 L 59,117 L 58,117 L 53,112 L 53,111 L 50,108 L 50,107 L 49,106 L 49,105 L 48,104 L 48,103 L 47,102 L 47,101 L 46,100 L 46,98 L 45,97 L 45,94 L 44,93 L 44,73 L 45,72 L 45,68 L 46,67 L 46,65 L 47,64 L 47,63 L 48,62 L 48,60 L 50,58 L 50,57 L 52,55 L 52,54 L 55,51 L 56,52 L 55,51 L 61,45 L 62,45 L 63,44 L 64,44 L 66,42 L 67,42 L 68,41 L 70,41 L 71,40 Z"/>
    </g>

    <!-- b -->
    <g transform="translate(110.5, 0) scale(0.1)">
      <path d="M 88,226 Z M 95,224 Z M 76,224 Z M 128,219 Z M 41,219 Z M 38,219 Z M 35,219 Z M 9,219 Z M 55,216 Z M 5,217 L 5,216 Z M 122,215 Z M 50,215 Z M 3,213 Z M 129,211 Z M 43,209 Z M 151,190 Z M 149,189 Z M 64,184 Z M 95,183 Z M 48,169 L 49,168 Z M 158,165 Z M 47,165 Z M 112,164 Z M 159,163 Z M 159,161 Z M 114,159 Z M 115,153 L 115,152 Z M 116,141 L 115,142 L 116,143 L 116,144 L 115,145 L 116,146 L 116,143 L 115,142 Z M 115,137 Z M 115,135 Z M 109,120 Z M 49,120 Z M 106,118 L 106,117 Z M 57,111 Z M 153,108 L 153,107 Z M 63,107 Z M 93,106 Z M 84,104 Z M 152,100 Z M 118,72 Z M 113,70 Z M 119,69 Z M 107,68 Z M 69,68 Z M 67,68 Z M 61,68 Z M 40,21 Z M 21,16 L 20,17 L 14,17 L 13,18 L 11,18 L 9,20 L 8,20 L 4,24 L 4,25 L 3,26 L 3,31 L 2,32 L 2,35 L 3,36 L 3,37 L 2,38 L 2,74 L 3,75 L 2,76 L 2,130 L 3,131 L 2,132 L 2,143 L 3,144 L 2,145 L 2,151 L 3,152 L 2,153 L 2,159 L 3,160 L 3,161 L 2,162 L 2,175 L 3,176 L 2,177 L 2,191 L 3,192 L 3,193 L 2,194 L 2,199 L 3,200 L 2,201 L 3,202 L 3,209 L 4,210 L 4,211 L 5,212 L 5,213 L 9,217 L 10,217 L 11,218 L 12,218 L 13,219 L 16,219 L 17,220 L 27,220 L 28,219 L 31,219 L 32,218 L 33,218 L 34,217 L 35,217 L 36,216 L 37,217 L 36,216 L 39,213 L 39,212 L 40,211 L 41,212 L 40,211 L 40,210 L 41,209 L 41,207 L 42,206 L 43,206 L 41,204 L 41,203 L 42,202 L 45,205 L 45,206 L 46,207 L 45,208 L 45,209 L 45,208 L 46,207 L 47,208 L 48,208 L 52,212 L 53,212 L 55,214 L 56,214 L 58,216 L 57,217 L 58,216 L 59,216 L 60,217 L 58,219 L 60,219 L 59,218 L 60,217 L 61,217 L 62,218 L 63,218 L 64,219 L 66,219 L 67,220 L 69,220 L 70,221 L 74,221 L 75,222 L 81,222 L 82,223 L 87,223 L 88,222 L 89,223 L 90,222 L 98,222 L 99,221 L 103,221 L 104,220 L 106,220 L 107,219 L 109,219 L 110,218 L 112,218 L 113,219 L 112,218 L 113,217 L 114,217 L 115,218 L 115,219 L 115,218 L 114,217 L 115,216 L 116,216 L 117,217 L 117,218 L 118,219 L 117,218 L 118,217 L 117,217 L 116,216 L 117,215 L 118,215 L 119,214 L 120,214 L 121,213 L 122,213 L 123,212 L 124,212 L 126,210 L 127,210 L 131,206 L 132,206 L 136,202 L 137,203 L 136,202 L 141,197 L 141,196 L 144,193 L 144,192 L 146,190 L 146,189 L 147,188 L 147,187 L 148,186 L 149,187 L 150,186 L 149,185 L 149,184 L 150,183 L 150,182 L 151,181 L 152,182 L 152,183 L 152,181 L 151,180 L 152,179 L 152,177 L 153,176 L 153,175 L 154,174 L 154,172 L 155,171 L 155,168 L 156,167 L 156,164 L 157,163 L 157,159 L 158,158 L 158,150 L 159,149 L 159,148 L 158,147 L 159,146 L 159,140 L 158,139 L 158,130 L 157,129 L 157,125 L 156,124 L 156,120 L 155,119 L 155,117 L 156,116 L 155,117 L 154,116 L 154,114 L 153,113 L 153,112 L 152,111 L 152,110 L 151,109 L 151,107 L 150,106 L 150,105 L 149,104 L 149,103 L 147,101 L 147,100 L 145,98 L 145,97 L 141,93 L 141,92 L 131,82 L 130,82 L 127,79 L 126,79 L 124,77 L 125,76 L 124,77 L 123,77 L 122,76 L 121,76 L 120,75 L 119,75 L 118,74 L 117,74 L 116,73 L 114,73 L 113,72 L 112,72 L 111,71 L 109,71 L 108,70 L 105,70 L 104,69 L 105,68 L 104,69 L 100,69 L 99,68 L 94,68 L 93,67 L 81,67 L 80,68 L 74,68 L 73,69 L 71,69 L 70,70 L 67,70 L 66,71 L 64,71 L 63,72 L 62,72 L 61,73 L 60,73 L 59,74 L 58,74 L 57,75 L 56,75 L 55,76 L 54,76 L 53,77 L 52,76 L 53,77 L 52,78 L 51,78 L 45,84 L 44,84 L 44,85 L 43,86 L 42,85 L 42,84 L 41,83 L 41,27 L 40,26 L 40,25 L 39,24 L 39,23 L 36,20 L 35,20 L 34,19 L 33,19 L 32,18 L 31,18 L 30,17 L 23,17 L 22,16 Z M 148,186 L 149,185 L 150,186 L 149,187 Z M 69,103 L 70,102 L 81,102 L 82,103 L 83,102 L 88,102 L 89,103 L 91,103 L 92,104 L 94,104 L 95,105 L 96,105 L 97,106 L 98,106 L 100,108 L 99,109 L 100,108 L 102,110 L 103,110 L 109,116 L 108,117 L 109,116 L 110,117 L 110,118 L 111,119 L 111,120 L 112,121 L 111,122 L 110,122 L 111,122 L 112,121 L 113,122 L 113,124 L 114,125 L 114,126 L 115,127 L 115,128 L 116,129 L 116,132 L 117,133 L 117,137 L 118,138 L 118,152 L 117,153 L 117,158 L 116,159 L 116,161 L 115,162 L 115,164 L 114,165 L 114,166 L 113,167 L 113,168 L 111,170 L 110,169 L 111,170 L 111,171 L 110,172 L 110,173 L 101,182 L 100,182 L 98,184 L 97,184 L 96,185 L 95,185 L 94,186 L 92,186 L 91,187 L 88,187 L 87,188 L 80,188 L 79,189 L 76,189 L 75,188 L 70,188 L 69,187 L 66,187 L 65,186 L 63,186 L 62,185 L 61,185 L 59,183 L 60,182 L 60,181 L 60,182 L 59,183 L 58,183 L 57,182 L 58,181 L 57,182 L 55,180 L 54,180 L 50,176 L 50,175 L 47,172 L 47,171 L 46,170 L 46,169 L 45,168 L 45,167 L 44,166 L 44,165 L 45,164 L 44,165 L 43,164 L 43,162 L 42,161 L 42,158 L 41,157 L 41,147 L 40,146 L 40,143 L 41,142 L 41,133 L 42,132 L 42,129 L 43,128 L 43,127 L 44,126 L 44,124 L 45,123 L 45,122 L 46,121 L 46,120 L 48,118 L 48,117 L 52,113 L 53,114 L 52,113 L 58,107 L 59,107 L 60,106 L 61,106 L 62,105 L 63,105 L 64,104 L 66,104 L 67,103 Z M 41,86 L 42,85 L 43,86 L 42,87 Z"/>
    </g>

    <!-- P -->
    <g transform="translate(166.5, 0) scale(0.1)">
      <path d="M 47,222 Z M 10,222 Z M 8,222 Z M 40,222 L 39,222 L 40,222 L 41,221 Z M 139,220 Z M 83,220 Z M 8,220 Z M 46,217 Z M 46,215 Z M 5,214 Z M 4,211 Z M 3,207 Z M 3,201 L 3,200 Z M 3,198 Z M 3,196 Z M 3,188 Z M 3,184 L 3,183 Z M 3,180 Z M 3,176 Z M 3,173 L 3,172 Z M 0,170 Z M 3,168 L 2,167 Z M 104,158 Z M 81,158 Z M 79,158 Z M 77,158 Z M 72,158 L 71,158 Z M 69,158 Z M 65,158 L 63,158 Z M 61,158 L 60,158 Z M 56,158 L 55,158 Z M 53,158 L 52,158 Z M 89,157 L 90,158 L 91,157 L 92,158 L 93,157 L 91,157 L 90,158 Z M 84,157 Z M 103,155 Z M 125,150 Z M 127,148 Z M 3,148 Z M 1,148 Z M 1,145 Z M 3,146 L 3,144 Z M 3,142 Z M 3,140 Z M 3,132 Z M 3,126 L 3,123 Z M 151,121 Z M 3,121 Z M 3,118 L 2,119 L 3,118 L 3,116 Z M 92,115 Z M 89,116 L 89,115 Z M 97,113 Z M 89,113 Z M 1,113 Z M 3,113 L 3,111 Z M 3,108 Z M 158,103 L 158,102 Z M 3,101 L 3,100 Z M 1,97 Z M 3,97 L 3,96 Z M 1,95 Z M 159,94 L 159,93 Z M 3,93 L 3,91 Z M 159,91 L 159,90 Z M 3,89 L 3,87 Z M 112,88 L 112,86 Z M 3,84 Z M 159,82 Z M 159,80 Z M 3,80 Z M 3,76 Z M 158,72 L 158,71 Z M 2,71 L 3,72 L 3,71 Z M 157,67 Z M 158,64 Z M 156,63 Z M 3,61 L 3,60 Z M 3,52 Z M 3,50 Z M 3,46 Z M 3,44 L 3,43 Z M 132,31 Z M 20,21 L 19,22 L 15,22 L 14,23 L 13,23 L 12,24 L 11,24 L 9,26 L 9,27 L 7,29 L 7,30 L 6,31 L 6,34 L 5,35 L 5,192 L 4,193 L 3,192 L 3,193 L 4,193 L 5,194 L 5,208 L 6,209 L 6,212 L 7,213 L 7,214 L 8,215 L 8,216 L 9,217 L 8,218 L 9,217 L 11,219 L 10,220 L 11,219 L 12,220 L 13,220 L 14,221 L 13,222 L 12,222 L 13,222 L 14,221 L 15,221 L 16,222 L 19,222 L 20,223 L 32,223 L 33,222 L 35,222 L 36,221 L 37,221 L 38,220 L 39,220 L 40,219 L 41,219 L 43,217 L 43,216 L 44,215 L 44,214 L 45,213 L 45,210 L 46,209 L 46,159 L 47,158 L 49,158 L 47,158 L 46,157 L 47,156 L 80,156 L 81,155 L 96,155 L 97,156 L 98,156 L 97,156 L 96,155 L 97,154 L 101,154 L 102,153 L 105,153 L 106,152 L 109,152 L 110,151 L 112,151 L 113,150 L 115,150 L 116,149 L 117,149 L 118,148 L 119,148 L 120,149 L 119,150 L 120,149 L 119,148 L 120,147 L 121,147 L 122,146 L 123,146 L 124,145 L 125,145 L 126,144 L 127,144 L 128,143 L 129,143 L 131,141 L 132,141 L 144,129 L 144,128 L 146,126 L 146,125 L 148,123 L 148,122 L 149,121 L 149,120 L 150,119 L 150,118 L 151,117 L 151,116 L 152,115 L 152,114 L 153,113 L 153,111 L 154,110 L 154,107 L 155,106 L 155,103 L 156,102 L 156,98 L 157,97 L 157,76 L 156,75 L 156,70 L 155,69 L 155,66 L 154,65 L 154,63 L 153,62 L 153,61 L 152,60 L 152,59 L 151,58 L 151,57 L 150,56 L 150,55 L 149,54 L 149,53 L 148,52 L 148,51 L 146,49 L 146,48 L 142,44 L 142,43 L 139,40 L 138,40 L 134,36 L 133,36 L 131,34 L 132,33 L 131,34 L 130,34 L 129,33 L 128,33 L 126,31 L 125,31 L 124,30 L 123,30 L 122,29 L 123,28 L 122,29 L 121,29 L 120,28 L 118,28 L 117,27 L 115,27 L 114,26 L 112,26 L 111,25 L 108,25 L 107,24 L 104,24 L 103,23 L 97,23 L 96,22 L 86,22 L 85,21 Z M 46,58 L 47,57 L 83,57 L 84,58 L 90,58 L 91,59 L 89,61 L 88,61 L 93,61 L 91,61 L 90,60 L 91,59 L 94,59 L 95,60 L 97,60 L 98,61 L 99,61 L 101,63 L 102,63 L 104,65 L 105,65 L 107,67 L 107,68 L 106,69 L 105,68 L 104,69 L 105,68 L 106,69 L 107,68 L 109,70 L 109,71 L 110,72 L 109,73 L 110,72 L 111,73 L 111,74 L 112,75 L 112,77 L 113,78 L 113,83 L 114,84 L 114,90 L 113,91 L 112,90 L 113,91 L 113,96 L 112,97 L 112,99 L 111,100 L 111,101 L 110,102 L 110,103 L 109,104 L 109,105 L 101,113 L 100,113 L 99,112 L 100,113 L 98,115 L 97,115 L 96,116 L 94,116 L 93,117 L 91,117 L 90,118 L 85,118 L 84,119 L 62,119 L 61,120 L 60,119 L 56,119 L 55,120 L 54,119 L 53,120 L 52,119 L 47,119 L 46,118 Z M 20,19 Z"/>
    </g>

    <!-- o (second) -->
    <g transform="translate(222.5, 0) scale(0.1)">
      <path d="M 117,156 L 116,156 Z M 114,156 L 112,156 Z M 52,156 L 51,156 Z M 41,156 Z M 40,154 Z M 16,154 Z M 37,152 Z M 124,151 Z M 38,150 L 37,149 Z M 33,147 Z M 13,131 L 13,130 Z M 154,127 Z M 154,124 L 153,124 L 154,124 L 155,123 Z M 81,123 Z M 94,121 Z M 156,120 L 155,119 Z M 97,120 L 98,119 Z M 155,117 Z M 9,116 Z M 6,109 Z M 5,106 L 5,105 Z M 51,102 L 50,103 L 51,103 Z M 49,101 Z M 161,100 L 161,99 Z M 162,95 L 162,94 Z M 163,85 Z M 163,83 L 164,82 Z M 2,82 Z M 163,77 Z M 118,77 L 119,78 L 117,80 L 118,79 L 119,80 L 119,81 L 118,82 L 119,83 L 119,77 Z M 2,73 Z M 118,71 Z M 162,70 Z M 52,62 Z M 51,60 Z M 52,58 Z M 6,55 Z M 7,53 Z M 108,52 L 107,52 Z M 8,50 Z M 6,50 Z M 97,44 Z M 83,41 L 82,41 Z M 13,40 Z M 14,31 Z M 136,21 Z M 121,11 Z M 46,10 Z M 59,5 Z M 45,5 Z M 73,4 L 72,5 L 67,5 L 66,6 L 62,6 L 61,5 L 62,6 L 61,7 L 58,7 L 57,8 L 55,8 L 54,9 L 52,9 L 51,10 L 50,10 L 49,11 L 48,11 L 47,12 L 46,12 L 45,13 L 44,13 L 43,14 L 42,14 L 41,15 L 40,15 L 38,17 L 37,17 L 35,19 L 34,19 L 29,24 L 28,24 L 27,23 L 28,22 L 28,21 L 28,22 L 27,23 L 28,24 L 23,29 L 23,30 L 19,34 L 18,33 L 19,34 L 19,35 L 17,37 L 17,38 L 15,40 L 15,41 L 14,42 L 14,43 L 12,45 L 12,47 L 11,48 L 10,47 L 10,46 L 10,47 L 11,48 L 11,49 L 10,50 L 10,51 L 9,52 L 9,54 L 8,55 L 8,57 L 7,58 L 7,61 L 6,62 L 6,65 L 5,66 L 5,70 L 4,71 L 4,92 L 5,93 L 5,98 L 6,99 L 6,103 L 7,104 L 7,106 L 8,107 L 8,109 L 9,110 L 9,112 L 8,113 L 7,112 L 8,113 L 9,112 L 10,113 L 10,114 L 11,115 L 11,117 L 12,118 L 12,119 L 13,120 L 13,121 L 15,123 L 15,124 L 14,125 L 15,124 L 16,125 L 16,126 L 18,128 L 18,129 L 19,130 L 18,131 L 19,130 L 21,132 L 21,133 L 22,133 L 23,134 L 23,135 L 22,136 L 23,135 L 26,138 L 25,139 L 26,138 L 27,138 L 31,142 L 30,143 L 31,142 L 32,143 L 33,143 L 36,146 L 37,146 L 39,148 L 40,148 L 42,150 L 41,151 L 40,151 L 41,151 L 42,150 L 43,150 L 44,151 L 42,153 L 43,152 L 44,153 L 45,153 L 46,154 L 44,156 L 43,156 L 44,156 L 45,155 L 47,155 L 48,154 L 49,155 L 48,154 L 49,153 L 50,153 L 51,154 L 53,154 L 54,155 L 56,155 L 57,156 L 59,156 L 60,157 L 63,157 L 64,158 L 68,158 L 69,159 L 79,159 L 80,160 L 85,160 L 86,159 L 95,159 L 96,158 L 100,158 L 101,157 L 104,157 L 105,156 L 107,156 L 108,155 L 110,155 L 111,154 L 112,154 L 113,153 L 115,153 L 116,152 L 117,152 L 118,151 L 119,151 L 120,150 L 121,150 L 122,149 L 123,149 L 125,147 L 126,147 L 128,145 L 129,145 L 131,143 L 132,143 L 136,139 L 137,139 L 139,137 L 139,136 L 145,130 L 145,129 L 147,127 L 147,126 L 149,124 L 149,123 L 151,121 L 152,122 L 151,121 L 151,120 L 152,119 L 153,120 L 152,119 L 152,118 L 153,117 L 153,116 L 154,115 L 154,114 L 155,113 L 155,111 L 156,110 L 156,108 L 157,107 L 157,105 L 158,104 L 158,101 L 159,100 L 159,97 L 160,96 L 160,89 L 161,88 L 161,74 L 162,73 L 161,74 L 160,73 L 160,68 L 159,67 L 159,63 L 158,62 L 158,59 L 157,58 L 157,56 L 156,55 L 156,53 L 155,52 L 155,50 L 154,49 L 154,48 L 153,47 L 153,46 L 152,45 L 152,44 L 151,43 L 151,42 L 149,40 L 149,39 L 148,38 L 148,37 L 145,34 L 145,33 L 141,29 L 141,28 L 136,23 L 135,23 L 131,19 L 130,19 L 129,18 L 130,17 L 129,18 L 128,17 L 127,17 L 125,15 L 124,15 L 123,14 L 122,14 L 121,13 L 120,13 L 119,12 L 118,12 L 117,11 L 116,11 L 115,10 L 114,10 L 113,9 L 111,9 L 110,8 L 108,8 L 107,7 L 104,7 L 103,6 L 104,5 L 108,5 L 103,5 L 102,6 L 98,6 L 97,5 L 92,5 L 91,4 Z M 43,152 L 44,151 L 46,151 L 47,152 L 48,152 L 49,153 L 48,154 L 46,154 L 45,153 L 44,153 Z M 74,40 L 75,39 L 89,39 L 90,40 L 93,40 L 94,41 L 96,41 L 97,42 L 99,42 L 100,43 L 101,43 L 103,45 L 104,45 L 105,46 L 104,47 L 105,46 L 107,48 L 106,49 L 107,48 L 111,52 L 109,54 L 110,54 L 110,53 L 111,52 L 113,54 L 113,55 L 112,56 L 112,58 L 112,56 L 113,55 L 115,57 L 115,58 L 116,59 L 116,60 L 117,61 L 117,63 L 118,64 L 118,65 L 119,66 L 119,68 L 120,69 L 120,74 L 121,75 L 121,90 L 120,91 L 119,90 L 120,91 L 120,95 L 119,96 L 119,98 L 118,99 L 118,100 L 117,101 L 117,103 L 115,105 L 115,106 L 114,107 L 113,106 L 114,107 L 114,108 L 112,110 L 111,109 L 110,110 L 109,109 L 110,110 L 111,109 L 112,110 L 112,111 L 107,116 L 106,116 L 104,118 L 103,117 L 104,118 L 103,119 L 102,119 L 101,120 L 100,120 L 98,122 L 96,122 L 95,123 L 93,123 L 92,124 L 89,124 L 88,125 L 78,125 L 77,124 L 72,124 L 71,123 L 69,123 L 68,122 L 67,122 L 66,121 L 65,121 L 64,120 L 63,120 L 62,119 L 61,119 L 59,117 L 58,117 L 53,112 L 53,111 L 50,108 L 50,107 L 49,106 L 49,105 L 48,104 L 48,103 L 47,102 L 47,101 L 46,100 L 46,98 L 45,97 L 45,94 L 44,93 L 44,73 L 45,72 L 45,68 L 46,67 L 46,65 L 47,64 L 47,63 L 48,62 L 48,60 L 50,58 L 50,57 L 52,55 L 52,54 L 55,51 L 56,52 L 55,51 L 61,45 L 62,45 L 63,44 L 64,44 L 66,42 L 67,42 L 68,41 L 70,41 L 71,40 Z"/>
    </g>

    <!-- p -->
    <g transform="translate(279, 0) scale(0.1)">
      <path d="M 34,227 Z M 3,212 Z M 3,210 Z M 46,189 Z M 96,176 Z M 90,176 Z M 70,175 Z M 3,175 Z M 122,171 Z M 50,171 Z M 119,169 L 118,169 Z M 46,169 Z M 54,168 L 53,169 L 54,169 Z M 51,167 Z M 3,162 L 3,161 Z M 3,158 L 3,156 Z M 145,143 Z M 71,138 Z M 68,137 Z M 91,136 Z M 97,133 Z M 92,134 L 91,133 Z M 94,132 L 93,132 Z M 3,130 Z M 3,127 L 3,126 Z M 154,123 L 154,122 Z M 48,117 L 49,116 Z M 46,116 Z M 3,89 L 3,88 Z M 157,85 Z M 3,80 Z M 107,71 Z M 99,66 Z M 56,64 Z M 150,60 Z M 92,58 Z M 84,56 Z M 71,56 Z M 144,48 Z M 144,45 L 143,46 L 144,46 Z M 141,45 Z M 3,33 Z M 4,30 Z M 39,24 Z M 7,24 L 8,23 Z M 4,22 Z M 67,20 Z M 33,20 L 32,20 Z M 17,20 Z M 79,19 L 78,20 L 73,20 L 72,21 L 69,21 L 68,22 L 66,22 L 65,21 L 65,20 L 64,21 L 63,20 L 62,20 L 63,21 L 65,21 L 66,22 L 65,23 L 64,23 L 63,24 L 61,24 L 60,25 L 59,25 L 57,27 L 56,27 L 54,29 L 53,29 L 49,33 L 48,33 L 45,36 L 45,37 L 44,38 L 43,37 L 43,36 L 42,35 L 42,34 L 41,33 L 41,30 L 40,29 L 40,28 L 35,23 L 36,22 L 35,21 L 36,22 L 35,23 L 34,23 L 33,22 L 29,22 L 28,21 L 29,20 L 30,20 L 29,20 L 28,21 L 20,21 L 19,22 L 15,22 L 14,23 L 12,23 L 10,25 L 9,25 L 8,26 L 8,27 L 7,28 L 7,29 L 6,30 L 6,31 L 5,32 L 5,39 L 4,40 L 3,39 L 3,36 L 3,43 L 4,43 L 5,44 L 5,47 L 4,48 L 3,47 L 3,45 L 3,47 L 5,49 L 5,50 L 4,51 L 3,50 L 3,58 L 3,53 L 4,52 L 5,53 L 5,59 L 4,60 L 3,60 L 3,63 L 4,64 L 3,65 L 3,72 L 3,68 L 4,67 L 5,68 L 5,75 L 4,76 L 3,75 L 3,74 L 3,75 L 4,76 L 3,77 L 4,76 L 5,77 L 5,82 L 4,83 L 3,82 L 4,83 L 3,84 L 3,86 L 4,85 L 5,86 L 5,91 L 4,92 L 3,92 L 3,93 L 2,94 L 3,95 L 3,96 L 4,97 L 3,98 L 3,103 L 3,100 L 4,99 L 5,100 L 5,104 L 3,106 L 4,107 L 4,108 L 3,109 L 3,124 L 4,124 L 5,125 L 5,131 L 4,132 L 3,132 L 3,142 L 2,143 L 3,143 L 3,139 L 4,138 L 5,139 L 5,147 L 4,148 L 3,147 L 3,145 L 3,154 L 3,149 L 4,148 L 5,149 L 5,163 L 4,164 L 3,164 L 3,171 L 4,172 L 3,173 L 4,172 L 5,173 L 5,189 L 4,190 L 3,189 L 3,177 L 3,192 L 4,191 L 5,192 L 5,193 L 4,194 L 3,194 L 3,195 L 4,196 L 3,197 L 3,199 L 3,197 L 4,196 L 5,197 L 5,201 L 4,202 L 3,201 L 3,203 L 4,202 L 5,203 L 5,216 L 4,217 L 3,216 L 3,214 L 3,216 L 4,217 L 4,219 L 4,217 L 5,216 L 6,217 L 6,219 L 8,221 L 7,222 L 8,221 L 9,222 L 9,223 L 10,223 L 12,225 L 14,225 L 15,226 L 18,226 L 19,227 L 28,227 L 29,226 L 32,226 L 33,225 L 34,225 L 35,224 L 36,224 L 38,222 L 39,222 L 39,221 L 40,220 L 40,219 L 41,218 L 41,217 L 42,216 L 42,212 L 43,211 L 43,204 L 42,203 L 42,200 L 43,199 L 42,198 L 43,197 L 42,196 L 42,195 L 43,194 L 42,193 L 42,192 L 43,191 L 42,190 L 42,168 L 43,167 L 42,166 L 42,165 L 43,164 L 43,162 L 42,161 L 42,159 L 43,158 L 44,158 L 46,160 L 45,159 L 46,158 L 47,158 L 48,159 L 48,160 L 49,160 L 50,161 L 50,162 L 51,162 L 52,163 L 51,164 L 51,165 L 52,165 L 53,166 L 54,165 L 55,165 L 57,167 L 56,168 L 57,169 L 56,168 L 57,167 L 58,167 L 60,169 L 58,171 L 56,171 L 61,171 L 62,170 L 63,170 L 64,171 L 66,171 L 67,172 L 69,172 L 70,173 L 73,173 L 74,174 L 82,174 L 83,175 L 84,175 L 85,174 L 97,174 L 98,173 L 101,173 L 102,172 L 105,172 L 106,171 L 108,171 L 109,170 L 110,170 L 111,171 L 114,171 L 111,171 L 110,170 L 111,169 L 112,169 L 113,168 L 115,168 L 116,169 L 115,168 L 117,166 L 118,166 L 119,165 L 120,165 L 121,164 L 122,164 L 124,162 L 125,162 L 130,157 L 131,157 L 135,153 L 135,152 L 140,147 L 140,146 L 143,143 L 143,142 L 144,141 L 144,140 L 146,138 L 146,137 L 147,136 L 147,135 L 148,134 L 148,133 L 149,132 L 149,131 L 150,130 L 150,128 L 151,127 L 151,125 L 152,124 L 153,125 L 152,124 L 152,121 L 153,120 L 153,118 L 154,117 L 154,112 L 155,111 L 155,102 L 156,101 L 156,99 L 155,98 L 156,97 L 156,96 L 155,95 L 156,94 L 156,93 L 155,92 L 155,84 L 154,83 L 154,77 L 153,76 L 153,73 L 154,72 L 154,70 L 153,69 L 153,67 L 152,66 L 151,67 L 150,66 L 150,64 L 151,63 L 152,64 L 151,63 L 151,62 L 151,63 L 150,64 L 149,63 L 149,62 L 148,61 L 148,60 L 147,59 L 147,58 L 146,57 L 146,56 L 144,54 L 144,53 L 145,52 L 144,53 L 142,51 L 142,50 L 140,48 L 140,47 L 138,45 L 138,44 L 129,35 L 128,35 L 126,33 L 127,32 L 126,33 L 125,32 L 124,32 L 122,30 L 121,30 L 120,29 L 121,28 L 120,29 L 119,28 L 118,28 L 117,27 L 116,27 L 115,26 L 114,26 L 113,25 L 112,25 L 111,24 L 110,24 L 109,23 L 107,23 L 106,22 L 104,22 L 103,21 L 104,20 L 106,20 L 104,20 L 103,21 L 100,21 L 99,20 L 91,20 L 90,19 Z M 60,170 L 61,169 L 62,170 L 61,171 Z M 52,165 L 53,164 L 54,165 L 53,166 Z M 3,165 L 4,164 L 5,165 L 5,171 L 4,172 L 3,171 Z M 51,164 L 52,163 L 53,164 L 52,165 Z M 44,158 L 45,157 L 46,158 L 45,159 Z M 43,156 L 44,155 L 45,156 L 45,157 L 44,158 L 43,157 Z M 42,155 L 43,154 L 44,155 L 43,156 Z M 3,135 L 4,134 L 5,135 L 4,136 Z M 3,133 L 4,132 L 5,133 L 4,134 Z M 3,119 L 4,118 L 5,119 L 5,121 L 4,122 L 3,121 Z M 3,117 L 4,116 L 5,117 L 4,118 Z M 3,109 L 4,108 L 5,109 L 5,113 L 4,114 L 3,113 Z M 3,98 L 4,97 L 5,98 L 4,99 Z M 3,95 L 4,94 L 5,95 L 4,96 Z M 3,93 L 4,92 L 5,93 L 4,94 Z M 152,70 L 153,69 L 154,70 L 154,72 L 153,73 L 152,72 Z M 151,67 L 152,66 L 153,67 L 153,69 L 152,70 L 151,69 Z M 103,65 L 104,64 L 105,65 L 105,66 L 104,67 L 103,66 Z M 102,64 L 103,63 L 104,64 L 103,65 Z M 3,63 L 4,62 L 5,63 L 4,64 Z M 68,55 L 69,54 L 87,54 L 88,55 L 90,55 L 91,56 L 93,56 L 94,57 L 95,57 L 96,58 L 97,58 L 100,61 L 99,62 L 100,63 L 100,64 L 100,63 L 101,62 L 102,62 L 103,63 L 102,64 L 102,65 L 104,67 L 105,66 L 109,70 L 109,71 L 110,72 L 110,73 L 111,74 L 111,75 L 112,76 L 112,77 L 113,78 L 113,80 L 114,81 L 114,83 L 115,84 L 115,89 L 116,90 L 116,104 L 115,105 L 115,110 L 114,111 L 114,114 L 113,115 L 113,116 L 112,117 L 112,119 L 111,120 L 111,121 L 109,123 L 109,124 L 106,127 L 106,128 L 101,133 L 100,133 L 98,135 L 97,135 L 95,137 L 93,137 L 92,138 L 91,138 L 90,139 L 87,139 L 86,140 L 80,140 L 79,141 L 77,141 L 76,140 L 70,140 L 69,139 L 66,139 L 65,138 L 64,138 L 63,137 L 64,136 L 66,136 L 64,136 L 63,137 L 62,137 L 61,136 L 60,136 L 58,134 L 57,134 L 56,133 L 57,132 L 56,133 L 48,125 L 48,124 L 47,123 L 47,122 L 46,121 L 46,120 L 45,119 L 45,118 L 44,117 L 44,115 L 43,114 L 43,111 L 42,110 L 42,105 L 41,104 L 41,90 L 42,89 L 42,84 L 43,83 L 43,80 L 44,79 L 44,77 L 45,76 L 45,75 L 46,74 L 46,73 L 47,72 L 47,71 L 49,69 L 49,68 L 53,64 L 54,65 L 53,64 L 57,60 L 58,60 L 60,58 L 61,58 L 63,56 L 65,56 L 66,55 Z M 42,38 L 43,37 L 44,38 L 43,39 Z"/>
    </g>
  </g>
</svg>